<?xml version="1.0" standalone="no"?>
<!DOCTYPE svg PUBLIC "-//W3C//DTD SVG 20010904//EN"
 "http://www.w3.org/TR/2001/REC-SVG-20010904/DTD/svg10.dtd">
<svg version="1.0" xmlns="http://www.w3.org/2000/svg"  viewBox="0 0 300.000000 318.000000"
 preserveAspectRatio="xMidYMid meet" id="svg4619">
<metadata>
Created by potrace 1.10, written by Peter Selinger 2001-2011
</metadata>
<g transform="translate(0.000000,318.000000) scale(0.100000,-0.100000)">
<path d="M1990 3164 c-137 -36 -345 -149 -484 -262 -165 -135 -301 -353 -330
-528 l-7 -40 43 -13 c149 -44 295 -157 342 -262 22 -49 24 -51 29 -29 65 298
149 535 240 667 25 38 30 50 17 43 -41 -22 -110 -134 -157 -255 -29 -73 -46
-126 -99 -303 l-19 -63 -71 70 c-58 56 -93 80 -178 121 -79 38 -106 56 -106
70 0 27 48 157 77 210 107 192 288 355 522 469 46 22 98 45 115 50 17 5 47 16
67 24 19 9 40 13 46 9 20 -13 105 -148 148 -237 82 -166 135 -362 135 -495 l0
-67 -137 -6 c-177 -7 -289 -40 -395 -118 l-43 -31 -3 32 c-5 50 34 222 84 368
25 73 44 136 41 139 -10 9 -85 -160 -107 -241 -22 -80 -83 -407 -77 -413 2 -2
15 13 29 33 37 51 131 119 214 153 92 39 184 53 319 49 l110 -3 -2 87 c-5 173
-66 391 -160 568 -43 80 -124 204 -141 213 -4 3 -32 -2 -62 -9z"/>
<path d="M770 2304 c-14 -2 -52 -9 -85 -15 -33 -6 -99 -22 -147 -36 l-88 -26
0 -77 c0 -149 50 -336 133 -495 75 -142 205 -252 341 -286 25 -6 46 -15 46
-20 0 -20 -64 -208 -86 -251 -29 -58 -30 -64 -3 -78 18 -10 22 -6 47 49 15 34
30 61 33 61 4 0 9 -14 13 -30 13 -67 91 -104 130 -61 23 26 14 39 -22 33 -25
-3 -33 2 -51 31 -11 19 -21 37 -21 41 0 3 20 15 44 27 76 35 104 86 63 114
-34 22 -55 11 -53 -28 1 -27 -6 -36 -48 -64 -27 -19 -50 -32 -52 -30 -2 2 10
37 26 78 16 40 29 81 30 89 0 12 21 18 88 27 86 12 191 54 250 101 l23 18 -64
84 c-180 238 -432 463 -584 521 -34 13 -28 5 20 -27 23 -16 47 -32 52 -37 6
-4 42 -30 80 -59 89 -64 315 -292 390 -392 56 -74 57 -77 40 -96 -26 -28 -151
-77 -220 -84 -33 -4 -64 -11 -69 -16 -14 -14 -42 -12 -55 4 -6 7 -38 23 -70
35 -140 51 -237 148 -313 311 -68 146 -108 299 -108 416 0 63 11 74 105 99
185 50 357 57 497 21 116 -31 172 -54 247 -105 121 -82 182 -184 187 -312 3
-77 -17 -183 -39 -206 -13 -14 -14 -14 -139 98 -211 188 -460 345 -595 375
-15 3 11 -15 60 -40 216 -113 423 -264 609 -445 37 -36 69 -63 71 -60 14 17
47 115 57 166 42 212 -54 385 -276 497 -106 54 -208 77 -349 81 -66 2 -131 2
-145 -1z"/>
<path d="M2078 2215 c-180 -34 -323 -128 -388 -255 -32 -64 -60 -185 -60 -264
0 -126 -10 -122 153 -51 312 138 590 215 892 249 17 1 -15 4 -71 5 -55 0 -127
-4 -160 -10 -197 -36 -437 -111 -642 -201 -63 -27 -120 -47 -128 -44 -35 13 0
225 53 315 127 216 458 298 788 194 44 -14 118 -43 164 -65 83 -40 247 -144
270 -172 25 -29 -77 -240 -182 -376 -71 -92 -203 -219 -268 -258 -224 -132
-462 -103 -655 81 -41 38 -74 78 -74 87 0 29 221 165 412 254 94 43 310 121
358 129 35 5 113 29 123 37 11 9 -134 -14 -211 -35 -91 -23 -256 -88 -366
-145 -94 -47 -308 -174 -354 -209 l-24 -18 52 -62 c55 -66 145 -138 221 -176
159 -81 361 -71 528 27 75 44 256 226 319 319 77 116 162 293 162 337 0 9 -29
38 -63 64 -143 107 -303 187 -464 229 -103 27 -281 34 -385 14z"/>
<path d="M134 1411 c-17 -11 -41 -40 -54 -66 -34 -70 -26 -99 56 -212 20 -28
12 -69 -17 -78 -29 -9 -49 12 -49 52 0 27 -4 34 -17 31 -10 -2 -24 -16 -32
-32 -12 -25 -11 -31 6 -55 37 -49 129 -36 159 22 21 39 13 76 -28 135 -37 54
-42 104 -15 146 23 34 61 50 88 36 28 -16 23 -54 -13 -96 -31 -35 -31 -37 -13
-50 25 -18 27 -18 54 7 47 44 53 103 15 148 -21 26 -33 31 -67 31 -24 0 -56
-8 -73 -19z"/>
<path d="M334 1285 c-16 -12 -17 -16 -5 -24 13 -8 9 -24 -22 -100 -30 -73 -35
-95 -27 -116 15 -40 63 -34 110 13 20 20 42 46 48 57 6 11 13 18 16 15 2 -3
-8 -36 -25 -75 -30 -71 -77 -130 -116 -146 -29 -11 -29 -26 -3 -34 13 -4 32 0
48 11 60 40 101 108 157 266 38 106 42 125 30 137 -20 20 -33 6 -80 -79 -46
-84 -111 -158 -125 -144 -7 7 2 38 25 91 40 92 43 118 16 133 -25 13 -23 13
-47 -5z"/>
<path d="M625 1287 c-12 -10 -14 -16 -7 -21 19 -12 14 -41 -23 -133 -37 -91
-38 -113 -7 -113 12 0 27 18 44 53 31 64 114 167 134 167 19 0 18 -13 -5 -58
-26 -51 -40 -107 -34 -132 11 -43 103 -34 103 10 0 17 -3 19 -19 10 -11 -5
-22 -10 -25 -10 -13 0 -4 34 24 97 37 80 38 107 6 128 -22 15 -28 15 -53 2
-15 -8 -43 -36 -61 -61 -18 -25 -35 -46 -36 -46 -2 0 4 21 13 46 15 43 15 46
-3 60 -24 17 -28 17 -51 1z"/>
<path d="M1275 1286 c-85 -39 -139 -142 -114 -216 14 -37 36 -50 88 -50 49 0
89 17 96 41 11 32 -4 41 -32 19 -44 -34 -103 -22 -103 22 0 13 8 18 30 18 105
0 181 107 114 159 -31 24 -39 25 -79 7z m53 -47 c4 -21 -33 -66 -70 -85 -38
-20 -43 -14 -23 28 35 68 85 99 93 57z"/>
<path d="M1456 1287 c-15 -11 -16 -17 -6 -33 10 -17 7 -35 -20 -113 -33 -97
-33 -121 -2 -121 14 0 25 15 41 58 11 31 37 78 56 105 31 41 39 47 68 45 29
-3 32 0 35 28 2 22 -2 33 -13 38 -25 9 -50 -9 -85 -64 -18 -27 -34 -50 -36
-50 -2 0 3 19 11 41 18 50 18 44 -1 63 -19 19 -25 20 -48 3z"/>
<path d="M2255 1140 c2 -4 30 -12 62 -19 238 -53 496 -316 629 -641 l26 -65
-48 -43 c-27 -24 -62 -50 -79 -59 -16 -8 -37 -21 -45 -28 -58 -49 -265 -132
-398 -159 -154 -31 -349 -11 -478 48 -167 78 -257 216 -271 417 -8 122 -12
121 182 34 204 -91 582 -196 697 -194 36 1 30 3 -37 15 -246 44 -577 154 -796
265 l-57 28 -6 -31 c-17 -88 4 -238 48 -334 33 -71 115 -157 191 -199 142 -80
358 -106 543 -66 112 24 200 55 295 102 65 33 201 121 251 163 l30 25 -18 58
c-43 138 -163 328 -290 462 -114 119 -258 203 -373 219 -34 5 -60 6 -58 2z"/>
<path d="M2065 1126 c-110 -35 -218 -109 -303 -209 l-52 -62 22 -16 c128 -97
431 -257 601 -317 110 -39 265 -78 274 -68 2 2 -11 7 -29 11 -62 13 -251 76
-332 112 -191 83 -496 257 -496 283 0 19 74 98 136 145 79 61 138 90 234 116
61 16 62 17 25 17 -22 1 -58 -5 -80 -12z"/>
<path d="M900 941 c-163 -52 -270 -164 -363 -381 -49 -116 -77 -235 -84 -361
l-6 -105 89 -27 c138 -42 198 -51 354 -51 111 -1 161 4 215 18 291 77 460 266
442 495 -6 70 -30 160 -57 210 -10 20 -14 19 -73 -40 -135 -133 -369 -312
-530 -404 -47 -27 -85 -51 -83 -53 5 -5 129 58 197 100 119 73 267 189 396
310 34 32 66 58 72 58 14 0 28 -35 47 -110 58 -237 -86 -440 -381 -535 -93
-30 -218 -47 -290 -39 -152 15 -304 50 -352 80 -20 12 -23 23 -23 73 0 199
114 495 240 621 127 127 318 175 479 120 62 -21 133 -60 146 -80 6 -9 -40 -83
-74 -120 -9 -9 -44 -50 -78 -91 -94 -112 -214 -221 -340 -313 -59 -42 -68 -54
-25 -32 56 29 192 136 269 213 104 103 156 163 257 295 l35 47 -32 25 c-46 34
-114 67 -172 82 -71 19 -208 17 -275 -5z"/>
</g>
</svg>
